<svg xmlns="http://www.w3.org/2000/svg"  viewBox="0 0 48 48" width="96px" height="96px" baseProfile="basic"><linearGradient id="H-RUdYjE7RfTQwfFK7ii6a" x1="22.764" x2="25.208" y1="5.737" y2="41.848" gradientUnits="userSpaceOnUse"><stop offset="0" stop-color="#4ba3aa"/><stop offset="1" stop-color="#0a747d"/></linearGradient><path fill="url(#H-RUdYjE7RfTQwfFK7ii6a)" d="M15,6h18c4.971,0,9,4.029,9,9v18c0,4.971-4.029,9-9,9H15c-4.971,0-9-4.029-9-9V15 C6,10.029,10.029,6,15,6z"/><path fill="#222220" d="M22.201,38.002c-1.346,0-3.955-0.923-4.65-4.502c-0.74-3.806-1.451-15.507-1.529-16.828 l-0.002-0.143c0.101-1.492,1.213-3.245,4.025-3.5c3.738-0.251,4.003,1.733,4.021,1.961l0.002,11.514l3.68-10.64 c0.043-0.09,1.085-2.222,3.721-3.159c0.478-0.165,1.004-0.064,1.38,0.264c0.371,0.324,0.54,0.827,0.44,1.312 c-0.858,4.12-4.285,16.772-4.43,17.31c-0.076,0.27-1.849,6.41-6.546,6.41C22.277,38.001,22.24,38.002,22.201,38.002z M18.019,16.574c0.283,4.752,0.915,13.561,1.495,16.545c0.551,2.832,2.531,2.909,2.772,2.881c3.208,0,4.632-4.894,4.646-4.943 c0.03-0.11,2.963-10.94,4.119-15.922c-0.928,0.62-1.383,1.382-1.479,1.555l-5.558,16.099l-1.945-0.326V15.277 c-0.157-0.124-0.691-0.332-1.868-0.254C18.31,15.195,18.051,16.225,18.019,16.574z" opacity=".05"/><path fill="#030000" d="M22.291,37.5c-0.295,0-3.473-0.099-4.25-4.095c-0.734-3.774-1.443-15.445-1.521-16.764 l-0.001-0.112c0.02-0.307,0.28-2.703,3.571-3.002c3.237-0.204,3.464,1.325,3.478,1.502l0.001,14.453l4.609-13.351 c0.061-0.135,1.016-2.087,3.458-2.955c0.303-0.108,0.643-0.043,0.883,0.168c0.24,0.21,0.345,0.521,0.28,0.835 c-0.855,4.104-4.388,17.148-4.423,17.279c-0.07,0.25-1.741,6.041-6.063,6.041C22.312,37.5,22.305,37.5,22.291,37.5z M17.519,16.583c0.078,1.312,0.783,12.92,1.504,16.631c0.645,3.318,3.171,3.284,3.273,3.286c3.581,0,5.102-5.254,5.117-5.307 c0.034-0.125,3.44-12.704,4.362-17.001c-1.912,0.762-2.666,2.302-2.673,2.317l-5.56,16.115l-0.973-0.163V15.069 c-0.041-0.144-0.563-0.67-2.401-0.545c-2.403,0.218-2.629,1.737-2.65,2.039l-0.499,0.049L17.519,16.583z" opacity=".07"/><path fill="#fff" d="M17.02,16.612c0,0,0-0.053,0-0.083c0.023-0.333,0.272-2.246,3.116-2.503 c2.836-0.189,2.934,1.044,2.934,1.044v17.393l5.581-16.168c0,0,0.877-1.838,3.153-2.647c0.28-0.098,0.567,0.136,0.507,0.431 c-0.862,4.136-4.416,17.249-4.416,17.249S26.306,37,22.313,37c0,0-3.04,0.121-3.781-3.69C17.791,29.498,17.065,17.376,17.02,16.612 z"/></svg>